<svg xmlns="http://www.w3.org/2000/svg" width="142" height="42" viewBox="0 0 142 42" fill="none"><path d="M25.8227 18.6344H25.1272H17.548C18.3505 19.6001 18.832 20.834 18.832 22.1753C18.832 25.2333 16.3532 27.7191 13.3037 27.7191C10.2542 27.7191 7.88234 25.3406 7.77534 22.372C7.77534 22.3004 7.77534 22.2468 7.77534 22.1753C7.77534 21.7282 7.82884 21.2811 7.93584 20.8698C8.50651 18.5092 10.593 16.7387 13.0897 16.6493H13.1253C13.1788 16.6493 13.2323 16.6493 13.2858 16.6493C13.3393 16.6493 13.375 16.6493 13.4285 16.6493H25.3947C23.2904 12.0354 18.6715 8.83434 13.2858 8.83434C11.3777 8.83434 9.55868 9.24565 7.91801 9.96098V3.02227L0 0V22.372C0.107 29.6505 6.02767 35.5341 13.3037 35.5341C19.1709 35.5341 24.1464 31.7249 25.9119 26.4494C25.6265 25.1439 25.4839 23.8026 25.466 22.4614C25.466 21.1559 25.573 19.8862 25.8227 18.6344Z" fill="#00A23A"></path><path d="M100.527 24.4107H115.293C115.417 23.6953 115.489 22.9621 115.489 22.211C115.489 21.8355 115.471 21.4778 115.435 21.1201C114.882 14.253 109.158 8.87011 102.167 8.87011C96.7103 8.87011 92.0201 12.1606 89.9693 16.8818V5.72205e-06L82.0156 3.02228V9.96099C80.3749 9.22777 78.5559 8.83434 76.6478 8.83434C70.7449 8.83434 65.7516 12.6792 64.0039 18.0085C64.3071 19.3855 64.4854 20.8161 64.4854 22.2826C64.4854 23.4629 64.3784 24.6074 64.1822 25.7162H72.4034C71.6009 24.7505 71.1194 23.5165 71.1194 22.1753C71.1194 19.1172 73.5983 16.6314 76.6478 16.6314C79.2514 16.6314 81.4271 18.4377 82.0156 20.8698C82.1226 21.299 82.1761 21.7282 82.1761 22.1753C82.1761 22.2468 82.1761 22.3004 82.1761 22.372C82.0691 25.287 79.7508 27.6118 76.8439 27.7191H76.7369C76.7013 27.7191 76.6834 27.7191 76.6478 27.7191C76.6121 27.7191 76.5943 27.7191 76.5586 27.7191H64.5211C66.6254 32.333 71.2443 35.5341 76.6299 35.5341C82.6576 35.5341 87.7401 31.5103 89.3808 26.0023C91.0214 31.5282 96.1039 35.5519 102.149 35.5519C107.535 35.5519 112.136 32.3687 114.24 27.7548H102.149C99.0999 27.7548 96.6211 25.2691 96.6211 22.211C96.6211 19.153 99.0999 16.6672 102.149 16.6672C104.824 16.6672 107.071 18.5807 107.571 21.1201H102.524L100.509 24.4107H100.527Z" fill="#00A23A"></path><path d="M33.7229 22.3004C33.7229 21.0129 33.9191 19.7968 34.2757 18.6523H32.0822V23.6059H30.1027V18.6523H25.8584C25.6265 19.8862 25.5017 21.1738 25.5017 22.4793C25.5017 23.8205 25.6622 25.1618 25.9475 26.4672C26.3934 28.5059 27.1424 30.4731 28.2124 32.2793H39.0016C35.7381 30.1691 33.7407 26.4136 33.7407 22.3004H33.7229Z" fill="#00A23A"></path><path d="M44.9758 34.014C43.781 34.014 42.5861 33.8173 41.427 33.4238C38.9838 33.4238 37.682 35.23 37.4858 37.0005C37.2896 38.753 38.1456 40.7739 40.5175 41.3282C41.962 41.668 43.46 41.8469 44.9758 41.8469C53.8568 41.8469 61.3468 35.8738 63.7187 27.7191H54.9982C53.1435 31.4924 49.3985 34.014 44.9758 34.014Z" fill="#00A23A"></path><path d="M64.0039 18.0085C62.0422 9.2993 54.2669 2.77191 44.9757 2.77191C44.8152 2.77191 44.6547 2.77191 44.512 2.77191C35.952 2.96863 28.7117 8.79857 26.322 16.6314H30.067V11.6778H32.0465V16.6314H34.6859H35.0604C36.9507 13.0011 40.6422 10.6048 44.9579 10.6048C51.2709 10.6048 56.2286 15.7373 56.2286 22.2826C56.2286 23.4807 56.0681 24.6432 55.7471 25.7161H64.1466C64.3427 24.5895 64.4497 23.445 64.4497 22.2826C64.4497 20.8161 64.2892 19.3855 63.9682 18.0085H64.0039Z" fill="#4677BB"></path><path d="M118.61 16.5778V2.82557H127.17V4.45294H120.268V8.76281H126.117V10.3902H120.268V14.9504H127.473V16.5778H118.61Z" fill="#4677BB"></path><path d="M133.483 16.6136L128.311 2.93286H130.077L134.642 14.9683H135.213L139.6 2.93286H141.365L136.372 16.6136H133.483Z" fill="#4677BB"></path></svg>